/* XPM */
static char *_c2108de10034f38bf63d008178fffd3mPI3DZEIswAiDIUp[] = {
/* columns rows colors chars-per-pixel */
"33 33 146 2 ",
"   c #E1771F",
".  c #E47F1E",
"X  c #EA5E3B",
"o  c #DF7527",
"O  c #DE7E2A",
"+  c #D96B33",
"@  c #DF6A3E",
"#  c #DB653D",
"$  c #E66627",
"%  c #E46E26",
"&  c #E2672B",
"*  c #E56D2E",
"=  c #E27D21",
"-  c #E37224",
";  c #EC6536",
":  c #E06834",
">  c #E6623B",
",  c #ED633E",
"<  c #BD6F5B",
"1  c #BF715B",
"2  c #B57762",
"3  c #BB7365",
"4  c #B07F71",
"5  c #F25E42",
"6  c #DC644C",
"7  c #CA6D5E",
"8  c #DC6553",
"9  c #D16E51",
"0  c #E76149",
"q  c #C76F63",
"w  c #E4871D",
"e  c #E19817",
"r  c #F39E1F",
"t  c #F0A31F",
"y  c #F9BD1F",
"u  c #E98621",
"i  c #E68E24",
"p  c #F08E21",
"a  c #F39B26",
"s  c #F5A420",
"d  c #F9AC23",
"f  c #FBA629",
"g  c #F7AF29",
"h  c #F4B720",
"j  c #F8BF28",
"k  c #DDD302",
"l  c #EECF03",
"z  c #EACF0C",
"x  c #F2CE03",
"c  c #F5C909",
"v  c #EED000",
"b  c #E5DB05",
"n  c #ECD30E",
"m  c #F0D001",
"M  c #E4CF14",
"N  c #EBCC11",
"B  c #E4CF1E",
"V  c #F5C910",
"C  c #FBC412",
"Z  c #E4D113",
"A  c #E5E008",
"S  c #F7F701",
"D  c #F8F602",
"F  c #F6F901",
"G  c #F8F800",
"H  c #F7F109",
"J  c #FCF30B",
"K  c #F1F90E",
"L  c #FEEE15",
"P  c #EAF91A",
"I  c #E2FB1C",
"U  c #DACF27",
"Y  c #CED52F",
"T  c #CDCF3D",
"R  c #CED13C",
"E  c #D2D235",
"W  c #D8D030",
"Q  c #E0CE22",
"!  c #FAC226",
"~  c #FEDE24",
"^  c #FDD22D",
"/  c #D3ED36",
"(  c #D4F63F",
")  c #D9F83A",
"_  c #FFE425",
"`  c #AB837B",
"'  c #92C35A",
"]  c #B6CE56",
"[  c #BAEF57",
"{  c #B4E65F",
"}  c #90C672",
"|  c #81D17A",
" . c #8DD17A",
".. c #9ADB75",
"X. c #A2DC6C",
"o. c #B2E562",
"O. c #C6F34E",
"+. c #C0EF55",
"@. c #75CA86",
"#. c #7BCB82",
"$. c #7FCF90",
"%. c #62C8A3",
"&. c #64C7AA",
"*. c #4FCBCB",
"=. c #5BC7C7",
"-. c #4FCBD7",
";. c #49C6D8",
":. c #4DC9DC",
">. c #54CBDC",
",. c #5CCDDD",
"<. c #76D7CE",
"1. c #64CFDF",
"2. c #63D1DE",
"3. c #6BD2DF",
"4. c #7DD1D1",
"5. c #74D4DD",
"6. c #5ECFE1",
"7. c #65D1E1",
"8. c #6CD3E3",
"9. c #72D5E3",
"0. c #7BD5E0",
"q. c #7FDCE4",
"w. c #979996",
"e. c #A58A83",
"r. c #A4918B",
"t. c #9EA09F",
"y. c #94A9AC",
"u. c #9CB0AF",
"i. c #95BDBF",
"p. c #88CA9A",
"a. c #82D391",
"s. c #85D29A",
"d. c #82CFD7",
"f. c #94CEDA",
"g. c #92CBD2",
"h. c #8DD0D8",
"j. c #8DD8DE",
"k. c #95D3DC",
"l. c #85D7E3",
"z. c #8DD6E5",
"x. c #83DAE6",
"c. c #89DBE6",
"v. c #85DBE8",
"b. c #88DBE9",
"n. c #93D5E1",
"m. c #90D8E4",
/* pixels */
"x.x.v.x.x.x.x.v.x.x.v.x.x.q.x.< O < x.x.q.v.q.v.v.q.q.v.q.v.0.v.q.",
"x.v.x.x.x.v.x.x.x.x.x.q.x.0.+ x b D + x.v.q.v.0.q.v.v.0.0.v.v.0.l.",
"v.v.x.x.x.v.x.v.x.x.x.x.x.4 c x b S J 2 q.l.q.x.x.v.q.v.0.v.q.v.q.",
"x.x.x.v.x.x.x.x.x.x.v.x.x.- l l A K D i q.q.v.x.0.v.v.0.v.q.v.0.q.",
"x.v.v.x.x.x.v.x.v.x.x.x.e.V x l ' F K H 3 q.q.x.q.v.v.0.0.q.0.v.l.",
"v.x.x.v.v.x.v.x.x.x.x.x.X l x E ;.[ F F + q.q.l.q.q.v.v.v.v.v.0.q.",
"x.v.x.x.x.x.x.x.x.x.x.x.= v x } :.%.F F e d.l.x.v.0.q.q.v.q.v.q.q.",
"v.q.v.x.v.v.x.v.x.x.x.w.y x x &.:.*.F S L r.l.q.v.v.v.v.0.v.v.0.x.",
"v.x.v.v.x.v.x.v.v.q.v.q c x l =.:.-.K F H 8 q.q.q.v.0.v.v.0.v.v.q.",
"x.v.v.v.x.v.v.q.v.l.l.0 x x l >.:.>.I G K X l.l.v.0.v.q.q.v.v.q.x.",
"q.v.v.v.v.x.x.v.x.x.v.0 x l n >.>.>.( G S & x.q.q.v.0.v.v.q.q.v.x.",
"v.v.v.q.x.x.v.x.v.l.l.$ x x Z >.>.,.[ S G   l.q.v.0.v.q.0.v.v.0.q.",
"v.v.v.v.l.x.x.v.v.x.v.% x x Q >.>.,.o.G S a j.x.v.v.q.v.v.v.v.v.x.",
"v.v.v.l.x.x.l.v.v.x.z.u x x W ,.,.,...G S j k.x.9.q.v.0.q.0.q.q.x.",
"v.z.v.v.v.v.x.v.v.v.n.a m x E ,.,.,.| G H ^ f.v.b.v.v.v.v.q.v.0.q.",
"v.v.v.v.v.v.v.v.v.v.k.s x v R 6.6.,.@.G H ^ f.v.v.v.0.v.0.v.0.v.x.",
"x.c.c.x.x.b.x.x.v.c.n.d x m T 6.7.,.$.G S _ k.v.x.x.l.x.x.q.q.l.x.",
"c.c.x.c.b.b.c.x.v.b.k.d m x T 7.2.7.$.G S ~ k.x.x.v.x.v.x.q.q.q.q.",
"c.c.c.c.c.c.x.x.l.x.k.s x c R 7.2.2.#.F G ^ k.x.v.v.x.l.x.x.l.q.x.",
"c.c.x.c.c.x.c.c.v.v.m.p x m E 7.7.8. .F G ! k.x.x.x.x.x.x.x.x.x.x.",
"c.x.c.c.x.c.c.c.b.v.c.. l x U 2.7.3.X.G G g m.x.x.v.v.v.x.v.x.x.x.",
"c.c.x.j.c.c.c.x.c.x.z.% x x B 8.8.8.{ G F w z.x.x.v.v.v.x.x.x.x.x.",
"c.c.x.x.c.x.c.c.x.c.c.; x x Z 3.8.8.O.G G o x.x.v.0.v.0.v.x.x.x.x.",
"c.c.c.x.c.c.c.x.c.z.v.5 l x n 8.8.8.) G F ; l.x.v.v.x.v.x.x.v.v.x.",
"c.c.c.c.c.c.c.c.c.c.c.8 x x x 5.8.8.P G H 0 x.x.v.v.v.v.v.v.q.v.v.",
"c.c.c.c.c.x.c.x.c.c.x.` C x m 4.8.5.K G J q x.v.v.v.0.v.v.v.v.v.x.",
"c.c.c.c.c.c.c.c.c.x.x.f.t x x p.9.<.F G ^ y.x.x.x.v.v.v.v.v.x.v.x.",
"c.c.c.c.c.c.c.c.c.c.c.x.* x x ] 0.s.G S - x.v.x.v.0.v.v.v.v.v.0.x.",
"c.c.c.c.c.c.c.c.c.c.x.c.9 x l N q./ G D 6 v.v.v.v.v.v.v.v.v.v.v.v.",
"b.c.c.c.c.c.c.c.c.c.b.c.g.d l l Y K S ~ i.v.v.v.v.v.0.v.0.v.v.v.x.",
"c.c.c.c.c.c.c.c.c.b.c.c.l.# l l k F G @ v.v.v.v.v.v.v.v.v.x.q.v.x.",
"b.c.c.c.c.c.c.c.c.c.c.c.b.h.r l b G ! f.v.v.v.v.v.v.v.v.0.x.v.v.x.",
"c.c.c.b.b.b.b.b.c.c.c.c.c.c.u.j n C t.b.b.b.c.v.v.v.v.v.v.x.v.x.v."
};
