/* XPM */
static char *resize_16743725591078477101f85e1a4b0ee34c3e85fecef6a18963531674372937[] = {
/* columns rows colors chars-per-pixel */
"33 33 232 2 ",
"   c #001B35",
".  c #001D39",
"X  c #001538",
"o  c #012437",
"O  c #00243B",
"+  c #02293D",
"@  c #08263E",
"#  c #173239",
"$  c #122536",
"%  c #002544",
"&  c #00244C",
"*  c #012C4D",
"=  c #0A2C47",
"-  c #03304D",
";  c #09334A",
":  c #1D3C4D",
">  c #16364B",
",  c #022C53",
"<  c #002E5B",
"1  c #043152",
"2  c #05345B",
"3  c #08355C",
"4  c #0D3959",
"5  c #133B5C",
"6  c #153854",
"7  c #132D44",
"8  c #223D55",
"9  c #003563",
"0  c #0B3C65",
"q  c #023C6E",
"w  c #063A67",
"e  c #133C63",
"r  c #013B73",
"t  c #013F7C",
"y  c #093E72",
"u  c #1C435D",
"i  c #1A4157",
"p  c #1B434F",
"a  c #24455C",
"s  c #214657",
"d  c #364558",
"f  c #0B426B",
"g  c #0A4168",
"h  c #13436B",
"j  c #1A466A",
"k  c #174668",
"l  c #01427C",
"z  c #0D497C",
"x  c #0D4677",
"c  c #164974",
"v  c #174C78",
"b  c #1F5279",
"n  c #2A4B65",
"m  c #254966",
"M  c #2D546B",
"N  c #36596B",
"B  c #214F71",
"V  c #255375",
"C  c #2A557C",
"Z  c #2A5A7E",
"A  c #275478",
"S  c #365A75",
"D  c #354B60",
"F  c #2F607E",
"G  c #39617C",
"H  c #416176",
"J  c #42647C",
"K  c #4A6A79",
"L  c #054987",
"P  c #085486",
"I  c #135385",
"U  c #1D5988",
"Y  c #085597",
"T  c #185C99",
"R  c #2D5C83",
"E  c #275B88",
"W  c #335C84",
"Q  c #385B87",
"!  c #245C95",
"~  c #0A639F",
"^  c #2C6182",
"/  c #2F628A",
"(  c #356185",
")  c #34638C",
"_  c #3A638B",
"`  c #3B6A8D",
"'  c #3E6684",
"]  c #2A6392",
"[  c #2D679A",
"{  c #336493",
"}  c #3C6D95",
"|  c #386A97",
" . c #3F7099",
".. c #085CA8",
"X. c #075FB8",
"o. c #125FA7",
"O. c #0B63A7",
"+. c #1866A8",
"@. c #0E62B9",
"#. c #0B64B6",
"$. c #1564B2",
"%. c #2669A0",
"&. c #456884",
"*. c #436589",
"=. c #436C8D",
"-. c #4A6B85",
";. c #4D7181",
":. c #56788C",
">. c #58768A",
",. c #426D91",
"<. c #4B7292",
"1. c #467599",
"2. c #517B94",
"3. c #577D9B",
"4. c #64798A",
"5. c #487CA2",
"6. c #527EA1",
"7. c #637EA3",
"8. c #1169C3",
"9. c #5E849C",
"0. c #688A96",
"q. c #738C9D",
"w. c #789092",
"e. c #4F82A7",
"r. c #5683A5",
"t. c #5B84A5",
"y. c #5B87AA",
"u. c #5C88B1",
"i. c #6489A8",
"p. c #7A98AA",
"a. c #6995B9",
"s. c #7B9BB4",
"d. c #6D97AF",
"f. c #7AA1BB",
"g. c #75A2C4",
"h. c #7CABCB",
"j. c #78A8CB",
"k. c #77ABD6",
"l. c #7FB1DC",
"z. c #77B1D6",
"x. c #899AAC",
"c. c #8BA3B4",
"v. c #98ADB4",
"b. c #83ABCD",
"n. c #88AEC1",
"m. c #89B4CD",
"M. c #96B6CB",
"N. c #81AED1",
"B. c #85B2D4",
"V. c #8AB5D4",
"C. c #8DBBDC",
"Z. c #89B7D7",
"A. c #93BED4",
"S. c #93BDDA",
"D. c #99BAD3",
"F. c #93ABC3",
"G. c #A7BBD1",
"H. c #8DBDE6",
"J. c #95BFE6",
"K. c #9CC4D6",
"L. c #A4C1C3",
"P. c #A2C1DC",
"I. c #B1C8D8",
"U. c #89C5E8",
"Y. c #96C2E4",
"T. c #9BC4E6",
"R. c #99C7EB",
"E. c #9ED0EB",
"W. c #92CDF4",
"Q. c #9CCAF1",
"!. c #9DD1F5",
"~. c #9CD3FB",
"^. c #99D6FD",
"/. c #A5CCEA",
"(. c #AAD2ED",
"). c #A9D1E7",
"_. c #B3D3EC",
"`. c #B9D8E8",
"'. c #A1CCF3",
"]. c #ADD6F4",
"[. c #A3DAFD",
"{. c #ACDBFC",
"}. c #A6D5F8",
"|. c #B3D5F2",
" X c #B4DAF5",
".X c #BCDCF4",
"XX c #B4DDFE",
"oX c #BBDDFC",
"OX c #B9D6F8",
"+X c #B6CCE1",
"@X c #A9E2FF",
"#X c #BDE1F4",
"$X c #B5E2FF",
"%X c #BCE3FE",
"&X c #BDE9FF",
"*X c #C4DAED",
"=X c #C1D6EC",
"-X c #C3DDFA",
";X c #C6DEF4",
":X c #D1DFF9",
">X c #C7E4EF",
",X c #D7EBEF",
"<X c #D6E5EB",
"1X c #DEF2ED",
"2X c #C6E4F4",
"3X c #CBE2F5",
"4X c #C3E3FC",
"5X c #CAE5FE",
"6X c #C4EBFF",
"7X c #CCEBFE",
"8X c #CCEBF5",
"9X c #D2EAF5",
"0X c #D5EDFE",
"qX c #DCEDFC",
"wX c #D7E6F7",
"eX c #CDF2FF",
"rX c #DCF2F6",
"tX c #D3F4FE",
"yX c #DCF3FE",
"uX c #D4F9FF",
"iX c #DBFBFF",
"pX c #E6EFEE",
"aX c #E2ECF3",
"sX c #E3EDFC",
"dX c #E2F3F3",
"fX c #E4F4FE",
"gX c #EAF5FD",
"hX c #E3FCFF",
"jX c #EAFBFE",
"kX c #EDF5F5",
"lX c #F6FCFF",
"zX c #EAF5EF",
/* pixels */
"M.> 8 a s K tXiXrXrXjXaXgXsXsXx.# G.<XlXgXyXhXrXuXiX7X<.5 5 : p V.",
"G.@ @ o N 2XhXiXfXjXkXdXgXgXv.$ # # I.wXfXsX,XhXrXeX.XXX' . + p C.",
"T.O = i 7XyXfXgXkXsXaXfXhXc.7 n S u > _.hXfXaX<XrX8X5X.XT.* * 4 R.",
"D.; s p.0.hXfXfXaXlXaXjX*XK &.*.` R *.>.+XfXaXaX,XyX5X_.3.Z.h g R.",
"L.s #XtXM.4.G.kXlXgXgXqXiXeXK.^ E { B.uX0XqX:XfXsXwXF.J b.XXQ.E C.",
"L.`.iXhX+Xq.d wXwXjXsXjXiXuXA.` [ | Y.tX5XyXfX:X5XqXn s./.].6X'.Y.",
"1XhXjX9XhXjXD x.yX0XhXhX5XhXM.S ) { B.tXuX7XyX0X0X7.m .X X4XOX4XoX",
"zXzXdXjXyXqX>.8 x.2X`..XiXtXM.G _ ) S.tX6X5X|.OX7.n N 2X2X3X-X-X%X",
"zXpXgXjXyXhXp.p H 0.K H yXP.*.*.W ' 9.).hX-.=.y.*.j :.8X>X>X;X;X-X",
"lXdXlXrXrXiXuX0.H 0.H s -Xn Q W _ F F 9.#XM S 0.*.7..XiX8X#X*X=X3X",
"qXqXfXhXiX2X9XuX8X8X>.a b.& _ | / / F M K.8 i.tX0X7XeX#XeX7X7X3X3X",
"gXgXhX7XtXK uXiXiXiX2X3.g., { E |  .V O d.i. XeX7XtX(.2.eX7X6XtX0X",
"fXhXtX5X&.m V.f.b.b.J.=.Z w { { } 1.` 2 j ' B.m.h.l.g.V y.&XuXtXqX",
"yXyX8Xi.k b x x z f 0 v , h 3 & * * h R f 9 f 9 f g g E V g.eX7X0X",
"gX,Xq.i E l L Y Y l L v c , - o o O , f x I I P P Y L r { 5 f.yXqX",
"1Xw.: V q T $...#.$.+.T c &   + o % % < ] ! ~ ~ ~ ~ +.L y ( n c.qX",
"v.# M b l o.@.#.X.8...+.z % + @ %   % < I T $.O.#.O.Y +.g A V : +X",
"uX0.+ R I L X.@.X...o.T ] 1 O %   6 & , U [ T O.O.O.+.L I / 4 s.0X",
"uXeX-.; R x q r t t z 9 g b X , * X , b 9 9 9 r r r r z U g y.6X.X",
"5X8X.X-.% ( ( ^ Z R Z Z 1 V | < 1 0 c 0 2 E | E ] ] ] E 2 a.].6X4X",
"4XOX5X.XH : M.n.D.m.S.<.,.& _ 7.5.1.R 3 _ 1.N.H.H.k.j.h r.$X6X X%X",
"-X5XOX7X.XJ _.eX#X&X].-.u.e Q Q _ | Z 1 t.1.Y.6X&X&XQ.<.&X_.7X7X4X",
"5XoX0XoX`.&X@X$X}.E.k e J.e Q Q Q ,.V ( '.j =.!.Q.@X&X X%X7X*X;X-X",
"-X5X-X%X&X].@X^ ^ 1.6.B '.,.Q _ _ W Q a.XXA ,.r.` W C.%X5X*X9X3X4X",
"-XoX-X&XXX&Xu.f R e.}  .XX}.y.) { { a.XX$X9.` r.V k =.#X4X7X=X3X4X",
"oX4X$X6X$XXX*.j H.$X}.&XXX&XB.( ) | B.$X$X$X$XXXh.u V $X|.4X5X*X4X",
"&X].#X&X.XOXm D.oXoX5X$XXXXXC./ ] [ H.@X$X]. X4X#Xs.u ].6X XoX6XoX",
"b.A.&X#XP.&.8 OX5X-XoX6X%X&Xj.{ [ [ k.$X6X6X.X7X&X&Xa 3.V.&X$XZ.A.",
"h.4 A.oX3.s.D.0X3XoX4X X(.].j.{ ] | l.Q.XX_.eX_.#X X(.i.a.{.J.j C.",
"A.- ; 2.c.$X&X X4X&X].6X{.e c Q { E h ,.oX$X#X6X&X&X&XXXi.r.5 e R.",
"V.. * - h.[.!.[.^.~.$X[.{.Q.e e C 6 Q oX].6X{.XX$X{.[.$XJ.6   m Y.",
"b.* * - k U.U.^.W.@XW.~.!.}.B.5 , V T./.XXE.{.@X^.[.}.R.4 % = - B.",
"j.R ^ ^ ^ 5.W.^.^.^.^.^.!.~.!.B.E R.'.}.~.~.~.~.~.~.W.5.| 1.,.{ z."
};
