/* XPM */
static char *Background1674372746[] = {
/* columns rows colors chars-per-pixel */
"33 33 121 2 ",
"   c #FB9BA8",
".  c #FB9CA8",
"X  c #FB9EAA",
"o  c #FBA1AD",
"O  c #FBA4AF",
"+  c #FBA7B2",
"@  c #FBAAB5",
"#  c #FAADB7",
"$  c #FAB0BA",
"%  c #FAB3BC",
"&  c #FAB6BF",
"*  c #FAB9C2",
"=  c #FABBC4",
"-  c #FABCC4",
";  c #FABBC3",
":  c #FABAC2",
">  c #FAB9C1",
",  c #FAB8C1",
"<  c #FAB7C0",
"1  c #FAB5BE",
"2  c #FAB4BE",
"3  c #FAB3BD",
"4  c #FAB2BC",
"5  c #FB9CA9",
"6  c #FB9EAB",
"7  c #FBA4B0",
"8  c #FBADB8",
"9  c #FBB0BA",
"0  c #FAB5BF",
"q  c #FB9BA9",
"w  c #FBA7B3",
"e  c #FBB4BD",
"r  c #FBB7C0",
"t  c #FAB6C0",
"y  c #FAB2BD",
"u  c #FC9CA9",
"i  c #FBA1AE",
"p  c #FBABB5",
"a  c #FBAEB8",
"s  c #FBB1BB",
"d  c #FBBAC2",
"f  c #FBBCC4",
"g  c #FBBBC3",
"h  c #FBBAC3",
"j  c #FBB9C2",
"k  c #FBB8C1",
"l  c #FBB7C1",
"z  c #FBB6C0",
"x  c #FBB5BF",
"c  c #FBB4BE",
"v  c #FBB3BD",
"b  c #FC9CAA",
"n  c #FC9EAC",
"m  c #FCA1AE",
"M  c #FBA5B0",
"N  c #FBA8B3",
"B  c #FBABB6",
"V  c #FBBCC5",
"C  c #FBBBC4",
"Z  c #FBB8C2",
"A  c #FC9FAC",
"S  c #FCA2AE",
"D  c #FCA5B1",
"F  c #FCA8B3",
"G  c #FBAEB9",
"H  c #FBB9C3",
"J  c #FBB3BE",
"K  c #FC9DAA",
"L  c #FCA2AF",
"P  c #FCA8B4",
"I  c #FCABB6",
"U  c #FCAEB9",
"Y  c #FBB1BC",
"T  c #FBB4BF",
"R  c #FCABB7",
"E  c #FCB1BC",
"W  c #FCB4BE",
"Q  c #FBBDC5",
"!  c #FD9DAA",
"~  c #FC9FAD",
"^  c #FCA5B2",
"/  c #FCAFB9",
"(  c #FCB2BC",
")  c #FCB5BF",
"_  c #FCB8C1",
"`  c #FCBBC4",
"'  c #FCBDC6",
"]  c #FCBCC5",
"[  c #FCBAC3",
"{  c #FCB9C3",
"}  c #FCB8C2",
"|  c #FCB7C1",
" . c #FCB6C0",
".. c #FCB5C0",
"X. c #FCB4BF",
"o. c #FD9DAB",
"O. c #FD9FAD",
"+. c #FDA2AF",
"@. c #FCA6B2",
"#. c #FCA9B5",
"$. c #FCACB7",
"%. c #FCAFBA",
"&. c #FCBAC4",
"*. c #FCB6C1",
"=. c #FDA0AD",
"-. c #FDA3B0",
";. c #FDA6B2",
":. c #FDA9B5",
">. c #FCB2BD",
",. c #FCBBC5",
"<. c #FCB9C2",
"1. c #FDACB8",
"2. c #FCBCC6",
"3. c #FD9EAB",
"4. c #FCBDC7",
"5. c #FCBEC7",
"6. c #FDACB7",
"7. c #FDA3AF",
"8. c #FDA9B4",
"9. c #FD9EAA",
"0. c #FDA0AC",
/* pixels */
"          . X o O + @ # $ % & * = - ; : > , < & 1 2 3 4 4 4 4 4 4 ",
"          . X o O + @ # $ % & * = - ; : > , < & 1 2 3 4 4 4 4 4 4 ",
"          . X o O + @ # $ % & * = - ; : > , < & 1 2 3 4 4 4 4 4 4 ",
"          . X o O + @ # $ % & * = - ; : > , < & 1 2 3 4 4 4 4 4 4 ",
"          . X o O + @ # $ % & * = - ; : > , < & 1 2 3 4 4 4 4 4 4 ",
"          . X o O + @ # $ % & * = - ; : > , < & 1 2 3 4 4 4 4 4 4 ",
"          5 6 o 7 + @ 8 9 3 & * = - ; : > , < & 0 2 3 4 4 4 4 4 4 ",
"q q q q q 5 6 o 7 w @ 8 9 e r : - - ; : * , < t 0 2 3 3 y y y y y ",
"u u u u u u 6 i 7 w p a s e r d f f g h j k l z x x c v v v v v v ",
"u u u u u b n m M N B a s c r h V V C h j Z l r z x c v v v v v v ",
"u u u u u b A S D F B G s c l h V V C h H j k r z x c J v v v v v ",
"b b b b b K A L D P I U Y c l h V V f C h j k l z x T J J J J J J ",
"b b b b b K A L D P R U E W k g Q Q V C h j Z l z x T J J J J J J ",
"! ! ! ! ! ! ~ L ^ P R / ( ) _ ` ' ' ] ` [ { } |  ...X.W W W W W W ",
"o.o.o.o.o.o.O.+.@.#.$.%.( ) _ ` ' ' ] ` &.{ } | *. .) X.X.X.X.X.X.",
"o.o.o.o.o.o.=.-.;.:.$.%.>.) } ` ' ' ] ,.&.{ <.} |  .) X.X.X.X.X.X.",
"o.o.o.o.o.o.=.-.;.:.1.%.>.) } ,.' ' 2.] ` [ { } |  ...X.X.X.X.X.X.",
"o.o.o.o.o.3.=.-.;.:.1.%.>.) } ,.4.5.' ] ` &.{ } | *...X.X.X.X.X.X.",
"o.o.o.o.o.3.=.-.;.:.6.%.>.) } ,.4.5.' ] ` &.{ } |  ...X.X.X.X.X.X.",
"o.o.o.o.o.3.=.-.;.:.6.%.>.) } ,.4.5.' ] ` [ { } |  ...X.X.X.X.X.X.",
"o.o.o.o.o.3.=.-.;.:.6.%.>.) } ,.4.5.' ] ` [ { } |  .) X.X.X.X.X.X.",
"o.o.o.o.o.3.=.-.;.:.6.%.>.) } ,.4.5.' ] ` [ { } |  .) X.X.X.X.X.X.",
"! ! ! ! ! 3.=.-.;.:.6.%.>.) } ,.4.5.' ] ` [ { } |  .) X.W W W W W ",
"! ! ! ! ! 3.=.7.;.:.6.%.>.) } ,.4.5.' ] ` [ { } |  .) X.W W W W W ",
"! ! ! ! ! 3.=.7.;.:.6.%.>.) } ,.4.5.' ] ` [ { } |  .) W W W W W W ",
"! ! ! ! ! 3.=.7.;.8.6.%.>.) } ,.4.5.' ] ` [ <.} |  .) W W W W W W ",
"! ! ! ! ! 3.=.7.;.8.6.%.>.) } ,.4.5.' ] ` [ <.} |  .) W W W W W W ",
"! ! ! ! ! 9.0.7.;.8.6.%.( ) } ,.4.5.' ] ` [ <.} |  .) W W W W W W ",
"! ! ! ! ! 9.0.7.;.8.6.%.( ) } ,.4.5.' ] ` [ <.} |  .) W W W W W W ",
"! ! ! ! ! 9.0.7.;.8.6.%.( ) } ,.4.5.' ] ` [ <.} |  .) W W W W W W ",
"! ! ! ! ! 9.0.7.;.8.6.%.( ) } ,.4.5.' ] ` [ <.} |  .) W W W W W W ",
"! ! ! ! ! 9.0.7.;.8.6.%.( ) } ,.4.5.' ] ` [ <.} |  .) W W W W W W ",
"! ! ! ! ! 9.0.7.;.8.6.%.( ) } ,.4.5.' ] ` [ <.} |  .) W W W W W W "
};
